<?xml version="1.0" encoding="UTF-8"?>
<svg width="163px" height="163px" viewBox="0 0 163 163" version="1.1" xmlns="http://www.w3.org/2000/svg" xmlns:xlink="http://www.w3.org/1999/xlink">
    <title>Group</title>
    <g id="Page-1" stroke="none" stroke-width="1" fill="none" fill-rule="evenodd">
        <g id="Group">
            <rect id="Rectangle" stroke="#979797" fill="#FFFFFF" x="32.5" y="29.5" width="100" height="99"></rect>
            <g id="cancel-(1)" fill="#000000" fill-rule="nonzero">
                <path d="M81.25,162.5 C36.375,162.5 0,126.125 0,81.25 C0,36.375 36.375,0 81.25,0 C126.125,0 162.5,36.375 162.5,81.25 C162.5,126.125 126.125,162.5 81.25,162.5 Z M118.50625,57.55625 C120.03125,56.03125 120.03125,53.55 118.50625,52.025 L110.20625,43.73125 C108.68125,42.20625 106.2,42.20625 104.675,43.73125 L81.16875,67.2375 L57.6625,43.73125 C56.1375,42.20625 53.65625,42.20625 52.13125,43.73125 L43.83125,52.025 C42.30625,53.55 42.30625,56.03125 43.83125,57.55625 L67.34375,81.06875 L43.83125,104.56875 C42.30625,106.09375 42.30625,108.575 43.83125,110.1 L52.13125,118.4 C53.65625,119.925 56.1375,119.925 57.6625,118.4 L81.16875,94.8875 L104.675,118.4 C106.2,119.925 108.68125,119.925 110.20625,118.4 L118.50625,110.1 C120.03125,108.575 120.03125,106.09375 118.50625,104.56875 L94.99375,81.06875 L118.50625,57.55625 Z" id="Shape"></path>
            </g>
        </g>
    </g>
</svg>