<?xml version="1.0" standalone="no"?><!DOCTYPE svg PUBLIC "-//W3C//DTD SVG 1.1//EN" "http://www.w3.org/Graphics/SVG/1.1/DTD/svg11.dtd"><svg t="1627373026782" class="icon" viewBox="0 0 1280 1024" version="1.1" xmlns="http://www.w3.org/2000/svg" p-id="4527" xmlns:xlink="http://www.w3.org/1999/xlink" width="40" height="32"><defs><style type="text/css">@font-face { font-family: feedback-iconfont; src: url("//at.alicdn.com/t/font_1031158_1uhr8ri0pk5.eot?#iefix") format("embedded-opentype"), url("//at.alicdn.com/t/font_1031158_1uhr8ri0pk5.woff2") format("woff2"), url("//at.alicdn.com/t/font_1031158_1uhr8ri0pk5.woff") format("woff"), url("//at.alicdn.com/t/font_1031158_1uhr8ri0pk5.ttf") format("truetype"), url("//at.alicdn.com/t/font_1031158_1uhr8ri0pk5.svg#iconfont") format("svg"); }
</style></defs><path d="M1184 384H946.52c25.38 59.18 14.24 130.4-34 178.64L640 835.16V928c0 53.02 42.98 96 96 96h448c53.02 0 96-42.98 96-96V480c0-53.02-42.98-96-96-96zM960 752c-26.5 0-48-21.5-48-48 0-26.52 21.5-48 48-48s48 21.48 48 48c0 26.5-21.5 48-48 48z m-92.74-373.4L517.4 28.74c-38.32-38.32-100.46-38.32-138.78 0L28.74 378.6c-38.32 38.32-38.32 100.46 0 138.78L378.6 867.26c38.32 38.32 100.46 38.32 138.78 0L867.26 517.4c38.32-38.34 38.32-100.48 0-138.8zM192 496c-26.5 0-48-21.5-48-48 0-26.52 21.5-48 48-48s48 21.48 48 48c0 26.5-21.5 48-48 48z m256 256c-26.5 0-48-21.5-48-48 0-26.52 21.5-48 48-48s48 21.48 48 48c0 26.5-21.5 48-48 48z m0-256c-26.5 0-48-21.5-48-48 0-26.52 21.5-48 48-48s48 21.48 48 48c0 26.5-21.5 48-48 48z m0-256c-26.5 0-48-21.5-48-48 0-26.52 21.5-48 48-48s48 21.48 48 48c0 26.5-21.5 48-48 48z m256 256c-26.5 0-48-21.5-48-48 0-26.52 21.5-48 48-48s48 21.48 48 48c0 26.5-21.5 48-48 48z" p-id="4528" fill="#fe5351"></path></svg>